<svg width="18" height="18" viewBox="0 0 18 18" fill="none" xmlns="http://www.w3.org/2000/svg">
<g clip-path="url(#clip0_8_42)">
<path fill-rule="evenodd" clip-rule="evenodd" d="M18 18H14.3016V11.7007C14.3016 9.97365 13.6453 9.00849 12.2783 9.00849C10.7912 9.00849 10.0143 10.0129 10.0143 11.7007V18H6.45V6H10.0143V7.6164C10.0143 7.6164 11.0859 5.63338 13.6324 5.63338C16.1777 5.63338 18 7.1877 18 10.4023V18ZM2.19785 4.42869C0.983784 4.42869 0 3.43719 0 2.21435C0 0.991507 0.983784 0 2.19785 0C3.41191 0 4.39511 0.991507 4.39511 2.21435C4.39511 3.43719 3.41191 4.42869 2.19785 4.42869ZM0.357425 18H4.07403V6H0.357425V18Z" fill="#331B3B"/>
</g>
<defs>
<clipPath id="clip0_8_42">
<rect width="18" height="18" fill="white"/>
</clipPath>
</defs>
</svg>
