<svg width="24" height="24" viewBox="0 0 24 24" fill="none" xmlns="http://www.w3.org/2000/svg">
<g clip-path="url(#clip0_8_46)">
<path d="M12 2.3202C15.1546 2.3202 15.525 2.33427 16.7718 2.39052C17.9249 2.44208 18.5484 2.63427 18.9656 2.79833C19.5187 3.01395 19.9125 3.26708 20.325 3.67958C20.7375 4.09208 20.9953 4.48583 21.2062 5.03895C21.3656 5.45614 21.5625 6.07958 21.614 7.2327C21.6703 8.47958 21.6843 8.84989 21.6843 12.0046C21.6843 15.1593 21.6703 15.5296 21.614 16.7765C21.5625 17.9296 21.3703 18.553 21.2062 18.9702C20.9906 19.5233 20.7375 19.9171 20.325 20.3296C19.9125 20.7421 19.5187 20.9999 18.9656 21.2108C18.5484 21.3702 17.9249 21.5671 16.7718 21.6186C15.525 21.6749 15.1546 21.689 12 21.689C8.84526 21.689 8.47495 21.6749 7.22808 21.6186C6.07495 21.5671 5.45151 21.3749 5.03433 21.2108C4.4812 20.9952 4.08745 20.7421 3.67495 20.3296C3.26245 19.9171 3.00464 19.5233 2.7937 18.9702C2.63433 18.553 2.43745 17.9296 2.38589 16.7765C2.32964 15.5296 2.31558 15.1593 2.31558 12.0046C2.31558 8.84989 2.32964 8.47958 2.38589 7.2327C2.43745 6.07958 2.62964 5.45614 2.7937 5.03895C3.00933 4.48583 3.26245 4.09208 3.67495 3.67958C4.08745 3.26708 4.4812 3.00927 5.03433 2.79833C5.45151 2.63895 6.07495 2.44208 7.22808 2.39052C8.47495 2.32958 8.84526 2.3202 12 2.3202ZM12 0.192078C8.7937 0.192078 8.39058 0.20614 7.12964 0.26239C5.87339 0.31864 5.01558 0.520203 4.26558 0.810828C3.48745 1.11083 2.8312 1.51864 2.17495 2.17489C1.5187 2.83114 1.11558 3.49208 0.810889 4.26552C0.520264 5.01552 0.318701 5.87333 0.262451 7.13426C0.206201 8.39051 0.192139 8.79364 0.192139 11.9999C0.192139 15.2061 0.206201 15.6093 0.262451 16.8702C0.318701 18.1265 0.520264 18.9843 0.810889 19.739C1.11089 20.5171 1.5187 21.1733 2.17495 21.8296C2.8312 22.4858 3.49214 22.889 4.26558 23.1936C5.01558 23.4843 5.87339 23.6858 7.13433 23.7421C8.39526 23.7983 8.7937 23.8124 12.0046 23.8124C15.2156 23.8124 15.614 23.7983 16.875 23.7421C18.1312 23.6858 18.989 23.4843 19.7437 23.1936C20.5218 22.8936 21.1781 22.4858 21.8343 21.8296C22.4906 21.1733 22.8937 20.5124 23.1984 19.739C23.489 18.989 23.6906 18.1311 23.7468 16.8702C23.8031 15.6093 23.8171 15.2108 23.8171 11.9999C23.8171 8.78895 23.8031 8.39052 23.7468 7.12958C23.6906 5.87333 23.489 5.01552 23.1984 4.26083C22.8984 3.4827 22.4906 2.82645 21.8343 2.1702C21.1781 1.51395 20.5171 1.11083 19.7437 0.80614C18.9937 0.515515 18.1359 0.313953 16.875 0.257703C15.6093 0.20614 15.2062 0.192078 12 0.192078Z" fill="#331B3B"/>
<path d="M12 5.93427C8.65308 5.93427 5.93433 8.64833 5.93433 11.9999C5.93433 15.3515 8.65308 18.0655 12 18.0655C15.3468 18.0655 18.0656 15.3468 18.0656 11.9999C18.0656 8.65301 15.3468 5.93427 12 5.93427ZM12 15.9374C9.82495 15.9374 8.06245 14.1749 8.06245 11.9999C8.06245 9.82489 9.82495 8.06239 12 8.06239C14.175 8.06239 15.9375 9.82489 15.9375 11.9999C15.9375 14.1749 14.175 15.9374 12 15.9374Z" fill="#331B3B"/>
<path d="M18.3047 7.11085C19.0865 7.11085 19.7203 6.47706 19.7203 5.69523C19.7203 4.9134 19.0865 4.2796 18.3047 4.2796C17.5228 4.2796 16.889 4.9134 16.889 5.69523C16.889 6.47706 17.5228 7.11085 18.3047 7.11085Z" fill="#331B3B"/>
</g>
<defs>
<clipPath id="clip0_8_46">
<rect width="24" height="24" fill="white"/>
</clipPath>
</defs>
</svg>
